<?xml version="1.0" standalone="no"?>
<!DOCTYPE svg PUBLIC "-//W3C//DTD SVG 20010904//EN"
 "http://www.w3.org/TR/2001/REC-SVG-20010904/DTD/svg10.dtd">
<svg version="1.0" xmlns="http://www.w3.org/2000/svg"
 width="512.000000pt" height="512.000000pt" viewBox="0 0 512.000000 512.000000"
 preserveAspectRatio="xMidYMid meet">
<metadata>
Created by potrace 1.14, written by Peter Selinger 2001-2017
</metadata>
<g transform="translate(0.000000,512.000000) scale(0.100000,-0.100000)"
fill="#000000" stroke="none">
<path d="M2495 4689 c-231 -23 -433 -172 -523 -386 -52 -124 -53 -126 -50
-920 l3 -738 24 -65 c85 -239 263 -393 501 -435 299 -53 591 111 704 395 42
105 44 148 42 903 -1 397 -5 733 -9 746 -35 124 -68 190 -131 266 -141 171
-344 255 -561 234z"/>
<path d="M1069 2760 c-10 -163 59 -441 155 -623 202 -380 558 -660 976 -768
44 -11 54 -13 116 -25 l30 -5 0 -347 0 -347 214 -3 215 -2 0 350 -1 350 36 6
c541 89 1020 503 1179 1019 39 125 57 229 60 331 l2 79 -175 -1 c-97 0 -178
-3 -180 -5 -2 -2 -6 -38 -9 -79 -25 -324 -197 -616 -469 -802 -431 -292 -1007
-263 -1408 71 -156 130 -280 318 -335 507 -29 98 -32 115 -41 224 -4 41 -8 77
-11 80 -2 2 -82 4 -178 5 -149 0 -175 -2 -176 -15z"/>
</g>
</svg>
